<?xml version="1.0" encoding="UTF-8" ?>
<!DOCTYPE svg PUBLIC "-//W3C//DTD SVG 1.1//EN" "http://www.w3.org/Graphics/SVG/1.1/DTD/svg11.dtd">
<svg width="1560pt" height="521pt" viewBox="0 0 1560 521" version="1.1" xmlns="http://www.w3.org/2000/svg">
<g id="#ffffffff">
</g>
<g id="#5095fcff">
<path fill="#5095fc" opacity="1.00" d=" M 764.41 71.58 C 774.20 69.82 784.85 73.09 791.68 80.40 C 797.81 86.77 800.56 96.20 798.60 104.84 C 795.75 118.63 781.83 128.46 767.97 127.67 C 754.00 127.49 740.70 116.22 739.76 102.00 C 738.24 87.35 750.14 73.68 764.41 71.58 Z" />
<path fill="#5095fc" opacity="1.00" d=" M 803.65 119.54 C 807.24 114.39 813.77 111.62 819.98 112.38 C 827.15 113.22 834.11 118.65 835.25 126.03 C 836.03 130.28 834.77 134.72 832.16 138.12 C 820.93 153.58 809.74 169.07 798.54 184.56 C 793.06 192.99 780.35 194.57 772.63 188.31 C 764.45 182.98 756.26 177.66 748.05 172.38 C 739.23 184.47 730.47 196.61 721.68 208.72 C 737.42 218.88 753.13 229.08 768.87 239.24 C 770.57 240.20 771.91 241.87 771.67 243.95 C 771.61 276.96 771.45 309.98 771.30 343.00 C 771.40 353.21 762.02 361.74 752.03 361.80 C 744.32 362.24 736.52 357.73 733.41 350.59 C 731.36 346.37 731.78 341.56 731.68 337.01 C 731.23 313.42 730.79 289.83 730.33 266.24 C 718.68 258.26 706.99 250.35 695.31 242.42 C 685.85 256.30 676.53 270.28 667.09 284.17 C 666.19 285.67 664.50 286.23 662.89 286.51 C 640.49 290.59 618.09 294.69 595.69 298.78 C 588.32 300.26 580.17 297.42 575.66 291.34 C 571.55 285.98 570.83 278.18 574.17 272.26 C 577.16 266.52 583.08 262.69 589.39 261.60 C 604.60 258.84 619.80 256.05 635.00 253.27 C 654.70 222.52 674.43 191.80 694.15 161.07 C 690.32 161.73 686.50 162.41 682.69 163.18 C 674.02 176.00 665.31 188.80 656.56 201.55 C 651.00 209.40 638.71 210.82 631.44 204.57 C 624.88 199.32 624.22 188.88 629.37 182.43 C 640.92 167.28 652.53 152.17 664.06 137.00 C 665.67 135.02 667.03 132.27 669.88 131.98 C 686.81 128.81 703.77 125.81 720.71 122.65 C 723.92 122.05 727.25 121.66 730.48 122.39 C 734.74 123.25 738.28 125.91 741.97 128.03 C 753.90 135.07 765.79 142.19 777.72 149.22 C 779.44 150.49 782.05 150.06 783.14 148.17 C 790.03 138.66 796.79 129.06 803.65 119.54 Z" />
</g>
<g id="#000000ff">
<path fill="#000000" opacity="1.00" d=" M 834.00 90.92 C 863.35 91.03 892.69 90.06 922.04 90.12 C 940.29 90.13 958.78 92.03 976.09 98.10 C 990.04 102.99 1003.08 111.19 1012.30 122.88 C 1022.52 135.62 1027.58 151.77 1029.21 167.84 C 1031.01 186.34 1029.69 205.65 1021.95 222.78 C 1016.60 234.89 1007.67 245.09 997.49 253.42 C 990.03 259.52 981.48 264.26 972.39 267.46 C 1003.50 308.07 1034.60 348.69 1065.70 389.31 C 1044.53 389.30 1023.36 389.31 1002.19 389.31 C 974.76 352.08 947.35 314.84 919.91 277.62 C 907.71 277.63 895.51 277.62 883.32 277.63 C 883.30 314.85 883.32 352.08 883.31 389.31 C 865.83 389.31 848.35 389.31 830.88 389.31 C 830.87 320.17 830.87 251.04 830.88 181.90 C 838.14 171.87 845.41 161.84 852.67 151.80 C 859.06 142.88 861.55 131.28 859.19 120.55 C 856.55 107.15 846.40 96.15 834.00 90.92 M 883.31 140.00 C 883.31 169.55 883.31 199.09 883.31 228.63 C 894.90 228.62 906.49 228.63 918.08 228.63 C 928.21 228.57 938.47 226.95 947.73 222.70 C 956.99 218.37 965.50 211.56 970.17 202.29 C 975.08 192.37 975.48 180.73 973.15 170.06 C 971.14 160.92 965.48 152.61 957.45 147.73 C 946.00 140.72 932.18 139.15 919.01 139.13 C 907.12 139.77 895.21 140.14 883.31 140.00 Z" />
<path fill="#000000" opacity="1.00" d=" M 65.75 90.94 C 147.73 90.93 229.71 90.94 311.69 90.94 C 311.69 107.29 311.68 123.64 311.69 140.00 C 279.44 140.01 247.19 140.00 214.94 140.00 C 214.94 223.11 214.94 306.21 214.94 389.31 C 197.46 389.31 179.98 389.31 162.50 389.31 C 162.50 306.21 162.50 223.11 162.50 140.01 C 130.25 139.99 98.00 140.01 65.75 140.00 C 65.75 123.64 65.75 107.29 65.75 90.94 Z" />
<path fill="#000000" opacity="1.00" d=" M 423.42 100.67 C 430.51 99.21 438.26 99.64 444.64 103.30 C 451.51 107.33 457.08 114.04 458.62 121.97 C 460.21 130.40 458.98 139.68 453.97 146.80 C 449.89 152.47 444.00 157.16 437.03 158.54 C 428.42 160.21 419.00 158.45 411.93 153.12 C 399.52 144.11 396.81 124.80 405.18 112.24 C 409.51 106.27 416.22 102.15 423.42 100.67 Z" />
<path fill="#000000" opacity="1.00" d=" M 544.23 215.75 C 559.02 200.64 580.51 193.55 601.30 192.82 C 601.31 207.13 609.56 220.85 622.09 227.70 C 621.37 228.82 620.66 229.95 619.95 231.07 C 607.25 233.47 594.49 235.58 581.83 238.13 C 573.82 240.63 565.48 242.63 558.43 247.39 C 553.13 250.76 548.42 255.00 544.26 259.69 C 544.23 285.59 544.25 311.49 544.25 337.38 C 560.04 347.24 579.65 350.53 597.87 347.11 C 614.11 344.05 627.58 331.80 633.89 316.76 C 645.99 314.46 658.16 312.45 670.24 310.04 C 679.16 308.12 685.99 301.37 690.42 293.70 C 690.04 311.53 685.93 329.49 676.99 345.03 C 666.48 363.35 650.12 378.52 630.45 386.46 C 613.57 393.39 594.95 394.96 576.89 393.56 C 565.60 392.68 554.17 390.36 544.23 384.71 C 544.26 414.66 544.24 444.61 544.25 474.56 C 527.92 474.56 511.58 474.56 495.25 474.56 C 495.25 382.21 495.25 289.86 495.25 197.50 C 511.58 197.50 527.91 197.50 544.25 197.50 C 544.24 203.58 544.26 209.67 544.23 215.75 Z" />
<path fill="#000000" opacity="1.00" d=" M 317.93 216.26 C 326.50 203.73 340.74 195.37 355.93 194.36 C 368.09 193.66 381.28 194.29 391.73 201.25 C 385.93 216.62 380.06 231.97 374.26 247.35 C 364.35 241.56 352.42 238.45 341.04 241.04 C 332.82 242.76 325.69 248.16 321.15 255.13 C 319.70 257.51 317.63 259.89 317.92 262.87 C 317.95 305.02 317.93 347.16 317.94 389.31 C 301.60 389.30 285.27 389.31 268.94 389.31 C 268.93 325.37 268.94 261.44 268.94 197.50 C 285.27 197.50 301.60 197.50 317.94 197.50 C 317.93 203.75 317.95 210.01 317.93 216.26 Z" />
<path fill="#000000" opacity="1.00" d=" M 1331.88 216.59 C 1344.50 203.05 1362.52 195.11 1380.96 194.28 C 1399.97 193.46 1420.13 195.93 1436.33 206.66 C 1449.44 215.21 1457.98 229.38 1461.87 244.33 C 1466.94 262.46 1465.47 281.42 1465.69 300.01 C 1465.68 329.78 1465.69 359.54 1465.68 389.31 C 1449.35 389.30 1433.02 389.31 1416.69 389.31 C 1416.69 356.52 1416.69 323.73 1416.69 290.94 C 1416.82 282.26 1416.62 273.38 1413.84 265.07 C 1411.41 257.47 1406.55 250.50 1399.65 246.36 C 1390.41 240.72 1379.14 239.64 1368.55 240.36 C 1354.54 241.42 1341.60 248.58 1331.85 258.46 C 1331.91 302.08 1331.86 345.70 1331.87 389.32 C 1315.52 389.30 1299.16 389.32 1282.81 389.31 C 1282.81 325.37 1282.81 261.44 1282.81 197.50 C 1299.16 197.50 1315.52 197.50 1331.87 197.50 C 1331.87 203.87 1331.87 210.23 1331.88 216.59 Z" />
<path fill="#000000" opacity="1.00" d=" M 405.56 197.50 C 421.90 197.50 438.23 197.50 454.56 197.50 C 454.56 261.44 454.56 325.37 454.56 389.31 C 438.23 389.31 421.90 389.31 405.56 389.31 C 405.56 325.37 405.56 261.44 405.56 197.50 Z" />
<path fill="#000000" opacity="1.00" d=" M 1071.75 197.50 C 1088.10 197.50 1104.46 197.50 1120.81 197.50 C 1120.81 227.66 1120.81 257.82 1120.81 287.97 C 1121.04 298.78 1120.02 309.74 1122.28 320.40 C 1123.97 328.70 1127.86 337.00 1134.89 342.07 C 1142.89 347.92 1153.32 349.05 1162.93 348.12 C 1178.17 346.67 1191.78 337.14 1200.41 324.82 C 1200.62 282.39 1200.44 239.94 1200.50 197.50 C 1216.83 197.50 1233.16 197.50 1249.50 197.50 C 1249.50 261.44 1249.50 325.37 1249.50 389.31 C 1233.16 389.31 1216.83 389.31 1200.50 389.31 C 1200.49 381.52 1200.51 373.73 1200.49 365.95 C 1189.83 379.16 1174.70 388.80 1157.99 392.12 C 1142.84 395.14 1126.61 394.93 1112.13 389.15 C 1097.61 383.37 1085.86 371.46 1079.60 357.22 C 1073.11 342.77 1071.58 326.69 1071.75 311.02 C 1071.76 273.18 1071.75 235.34 1071.75 197.50 Z" />
</g>
</svg>
